<svg xmlns="http://www.w3.org/2000/svg" version="1.1" xmlns:xlink="http://www.w3.org/1999/xlink" xmlns:svgjs="http://svgjs.dev/svgjs" width="1500" height="1500" viewBox="0 0 1500 1500"><rect width="1500" height="1500" fill="#ffffff"></rect><g transform="matrix(0.6666666666666666,0,0,0.6666666666666666,249.1143909589303,299.45286164065686)"><svg viewBox="0 0 375 331" data-background-color="#ffffff" preserveAspectRatio="xMidYMid meet" height="1324" width="1500" xmlns="http://www.w3.org/2000/svg" xmlns:xlink="http://www.w3.org/1999/xlink"><g id="tight-bounds" transform="matrix(1,0,0,1,0.3326922193443522,3.6346857789935996)"><svg viewBox="0 0 374.3346586463559 327.2" height="327.2" width="374.3346586463559"><g><svg viewBox="0 0 395.52 345.71777154693297" height="327.2" width="374.3346586463559"><g transform="matrix(1,0,0,1,0,252.67155380348078)"><svg viewBox="0 0 395.52 93.04621774345217" height="93.04621774345217" width="395.52"><g id="textblocktransform"><svg viewBox="0 0 395.52 93.04621774345217" height="93.04621774345217" width="395.52" id="textblock"><g><svg viewBox="0 0 395.52 63.759489862994364" height="63.759489862994364" width="395.52"><g transform="matrix(1,0,0,1,0,0)"><svg width="395.52" viewBox="1.65341 -30.03067 260.64821 42.01758999999999" height="63.759489862994364" data-palette-color="#000000"><path d="M1.653 11.987l7.733-33.723 9.421-1.22 15.771 30.678-7.834 1.015-3.974-8.107-11.752 1.523-1.728 8.845zM12.085-3.229l8.331-1.079-5.633-11.572-0.199 0.025zM37.882 7.407l-3.136-32.298 7.763-0.754 2.6 26.774 15.876-1.542 0.536 5.524zM66.443 4.838l-1.988-32.389 7.785-0.478 0.797 12.975 13.774-0.845-0.797-12.976 7.786-0.477 1.988 32.389-7.786 0.477-0.851-13.873-13.774 0.845 0.851 13.874zM98.979 2.978l11.394-32.667 9.498-0.177 12.302 32.227-7.899 0.147-3.058-8.495-11.848 0.221-2.691 8.601zM111.021-10.998l8.398-0.156-4.326-12.122-0.2 0.004zM135.474 2.416l0.482-32.447 13.149 0.196c3.1 0.046 5.489 0.305 7.169 0.777 1.673 0.478 2.852 1.213 3.538 2.203 0.685 0.997 1.015 2.379 0.988 4.145v0l-0.059 3.999c-0.013 0.9-0.383 1.744-1.108 2.534-0.732 0.789-1.583 1.327-2.554 1.612v0l-0.004 0.25c1.265 0.152 2.416 0.709 3.455 1.672 1.032 0.969 1.54 2.036 1.523 3.203v0l-0.074 4.999c-0.039 2.633-1.117 4.484-3.233 5.553-2.116 1.069-5.374 1.57-9.774 1.505v0zM143.559-16.716l5.35 0.079c1.233 0.018 2.151-0.068 2.754-0.259 0.603-0.191 1.018-0.512 1.244-0.961 0.22-0.443 0.336-1.098 0.349-1.965v0l0.024-1.6c0.011-0.767-0.08-1.345-0.274-1.734-0.194-0.383-0.597-0.662-1.208-0.838-0.617-0.176-1.593-0.274-2.926-0.294v0l-5.199-0.077zM143.355-3.018l5.55 0.083c1.9 0.028 3.253-0.168 4.059-0.59 0.806-0.421 1.217-1.115 1.231-2.082v0l0.039-2.599c0.018-1.2-0.276-2.054-0.882-2.564-0.612-0.509-1.702-0.775-3.269-0.799v0l-6.599-0.098zM163.451 2.923l13.737-31.754 9.486 0.514 9.929 33.035-7.889-0.427-2.433-8.695-11.833-0.64-3.308 8.383zM176.476-10.142l8.388 0.454-3.435-12.404-0.199-0.01zM199.874 5.015l2.882-32.322 14.542 1.297c4.316 0.385 7.391 1.184 9.224 2.399 1.832 1.221 2.639 3.06 2.419 5.517v0l-0.506 5.677c-0.169 1.892-0.972 3.317-2.409 4.273-1.444 0.962-3.292 1.493-5.544 1.594v0l8.177 14.132-8.964-0.799-7.334-13.455-3.586-0.32-1.132 12.7zM209.233-12.121l6.673 0.595c1.826 0.163 3.093 0.031 3.8-0.394 0.707-0.419 1.122-1.326 1.247-2.72v0l0.204-2.291c0.107-1.195-0.175-2.05-0.845-2.565-0.677-0.509-1.879-0.84-3.606-0.995v0l-6.674-0.595zM229.376 7.727l16.062-30.644 9.421 1.218 7.443 33.683-7.835-1.013-1.78-8.851-11.752-1.52-3.923 8.114zM243.337-4.333l8.331 1.078-2.502-12.626-0.198-0.025z" opacity="1" transform="matrix(1,0,0,1,0,0)" fill="#000000" class="wordmark-text-0" data-fill-palette-color="primary" id="text-0"></path></svg></g></svg></g><g transform="matrix(1,0,0,1,118.31980799999998,68.68360719897778)"><svg viewBox="0 0 158.88038400000002 24.362610544474396" height="24.362610544474396" width="158.88038400000002"><g transform="matrix(1,0,0,1,0,0)"><svg width="158.88038400000002" viewBox="4.91 -37.99 326.03999999999996 50" height="24.362610544474396" data-palette-color="#7f7f7f"><path d="M9.06-15.26L9.06 0 4.91 0 4.91-35.69 24.8-35.69 24.8-32.01 9.06-32.01 9.06-18.95 23.85-18.95 23.85-15.26 9.06-15.26ZM53.2-13.4L53.2-13.4Q53.2-6.86 49.9-3.19 46.6 0.49 40.79 0.49L40.79 0.49Q37.2 0.49 34.42-1.2 31.64-2.88 30.12-6.03 28.61-9.18 28.61-13.4L28.61-13.4Q28.61-19.95 31.88-23.6 35.15-27.25 40.96-27.25L40.96-27.25Q46.58-27.25 49.89-23.51 53.2-19.78 53.2-13.4ZM32.81-13.4L32.81-13.4Q32.81-8.28 34.86-5.59 36.91-2.91 40.89-2.91L40.89-2.91Q44.87-2.91 46.93-5.58 49-8.25 49-13.4L49-13.4Q49-18.51 46.93-21.15 44.87-23.8 40.84-23.8L40.84-23.8Q36.86-23.8 34.84-21.19 32.81-18.58 32.81-13.4ZM72.5-27.25L72.5-27.25Q74.29-27.25 75.7-26.95L75.7-26.95 75.14-23.19Q73.48-23.56 72.21-23.56L72.21-23.56Q68.96-23.56 66.66-20.92 64.35-18.29 64.35-14.36L64.35-14.36 64.35 0 60.3 0 60.3-26.76 63.64-26.76 64.11-21.8 64.3-21.8Q65.79-24.41 67.89-25.83 69.99-27.25 72.5-27.25ZM94.3 0L94.3-35.69 104.38-35.69Q111.49-35.69 114.66-33.57 117.84-31.45 117.84-26.86L117.84-26.86Q117.84-23.68 116.07-21.62 114.3-19.56 110.9-18.95L110.9-18.95 110.9-18.7Q119.03-17.31 119.03-10.16L119.03-10.16Q119.03-5.37 115.8-2.69 112.56 0 106.75 0L106.75 0 94.3 0ZM98.45-32.1L98.45-20.41 105.29-20.41Q109.68-20.41 111.61-21.79 113.54-23.17 113.54-26.44L113.54-26.44Q113.54-29.44 111.39-30.77 109.24-32.1 104.56-32.1L104.56-32.1 98.45-32.1ZM105.56-16.89L98.45-16.89 98.45-3.54 105.9-3.54Q110.22-3.54 112.4-5.21 114.59-6.88 114.59-10.45L114.59-10.45Q114.59-13.77 112.36-15.33 110.12-16.89 105.56-16.89L105.56-16.89ZM145.54 0L142.54 0 141.74-3.81 141.54-3.81Q139.54-1.29 137.55-0.4 135.56 0.49 132.58 0.49L132.58 0.49Q128.6 0.49 126.34-1.56 124.08-3.61 124.08-7.4L124.08-7.4Q124.08-15.5 137.05-15.89L137.05-15.89 141.59-16.04 141.59-17.7Q141.59-20.85 140.23-22.35 138.88-23.85 135.9-23.85L135.9-23.85Q132.56-23.85 128.33-21.8L128.33-21.8 127.09-24.9Q129.06-25.98 131.42-26.59 133.78-27.2 136.14-27.2L136.14-27.2Q140.93-27.2 143.24-25.07 145.54-22.95 145.54-18.26L145.54-18.26 145.54 0ZM133.39-2.86L133.39-2.86Q137.17-2.86 139.33-4.93 141.49-7.01 141.49-10.74L141.49-10.74 141.49-13.16 137.44-12.99Q132.6-12.82 130.47-11.49 128.33-10.16 128.33-7.35L128.33-7.35Q128.33-5.15 129.66-4 130.99-2.86 133.39-2.86ZM166.34-27.2L166.34-27.2Q171.62-27.2 174.53-23.6 177.45-20 177.45-13.4L177.45-13.4Q177.45-6.81 174.51-3.16 171.57 0.49 166.34 0.49L166.34 0.49Q163.73 0.49 161.57-0.48 159.41-1.44 157.94-3.44L157.94-3.44 157.65-3.44 156.8 0 153.89 0 153.89-37.99 157.94-37.99 157.94-28.76Q157.94-25.66 157.75-23.19L157.75-23.19 157.94-23.19Q160.78-27.2 166.34-27.2ZM165.76-23.8L165.76-23.8Q161.61-23.8 159.78-21.42 157.94-19.04 157.94-13.4L157.94-13.4Q157.94-7.76 159.82-5.33 161.7-2.91 165.85-2.91L165.85-2.91Q169.59-2.91 171.42-5.63 173.25-8.35 173.25-13.45L173.25-13.45Q173.25-18.68 171.42-21.24 169.59-23.8 165.76-23.8ZM191.07 0.15L180.28-26.76 184.63-26.76 190.49-11.5Q192.41-6.27 192.88-3.96L192.88-3.96 193.07-3.96Q193.39-5.2 194.4-8.22 195.42-11.23 201.03-26.76L201.03-26.76 205.38-26.76 193.88 3.71Q192.17 8.23 189.89 10.12 187.6 12.01 184.28 12.01L184.28 12.01Q182.43 12.01 180.62 11.6L180.62 11.6 180.62 8.35Q181.96 8.64 183.63 8.64L183.63 8.64Q187.8 8.64 189.58 3.96L189.58 3.96 191.07 0.15ZM227.47-15.26L227.47 0 223.32 0 223.32-35.69 243.21-35.69 243.21-32.01 227.47-32.01 227.47-18.95 242.26-18.95 242.26-15.26 227.47-15.26ZM271.61-13.4L271.61-13.4Q271.61-6.86 268.31-3.19 265.01 0.49 259.2 0.49L259.2 0.49Q255.61 0.49 252.83-1.2 250.05-2.88 248.53-6.03 247.02-9.18 247.02-13.4L247.02-13.4Q247.02-19.95 250.29-23.6 253.56-27.25 259.37-27.25L259.37-27.25Q264.99-27.25 268.3-23.51 271.61-19.78 271.61-13.4ZM251.22-13.4L251.22-13.4Q251.22-8.28 253.27-5.59 255.32-2.91 259.3-2.91L259.3-2.91Q263.28-2.91 265.34-5.58 267.41-8.25 267.41-13.4L267.41-13.4Q267.41-18.51 265.34-21.15 263.28-23.8 259.25-23.8L259.25-23.8Q255.27-23.8 253.25-21.19 251.22-18.58 251.22-13.4ZM301.8-13.4L301.8-13.4Q301.8-6.86 298.51-3.19 295.21 0.49 289.4 0.49L289.4 0.49Q285.81 0.49 283.03-1.2 280.25-2.88 278.73-6.03 277.22-9.18 277.22-13.4L277.22-13.4Q277.22-19.95 280.49-23.6 283.76-27.25 289.57-27.25L289.57-27.25Q295.19-27.25 298.5-23.51 301.8-19.78 301.8-13.4ZM281.42-13.4L281.42-13.4Q281.42-8.28 283.47-5.59 285.52-2.91 289.5-2.91L289.5-2.91Q293.48-2.91 295.54-5.58 297.6-8.25 297.6-13.4L297.6-13.4Q297.6-18.51 295.54-21.15 293.48-23.8 289.45-23.8L289.45-23.8Q285.47-23.8 283.44-21.19 281.42-18.58 281.42-13.4ZM327.66 0L327.12-3.59 326.9-3.59Q324.09 0.49 318.5 0.49L318.5 0.49Q313.25 0.49 310.33-3.1 307.42-6.69 307.42-13.31L307.42-13.31Q307.42-19.92 310.35-23.58 313.28-27.25 318.5-27.25L318.5-27.25Q323.94-27.25 326.85-23.29L326.85-23.29 327.17-23.29 327-25.22 326.9-27.1 326.9-37.99 330.95-37.99 330.95 0 327.66 0ZM319.01-2.91L319.01-2.91Q323.16-2.91 325.03-5.16 326.9-7.42 326.9-12.45L326.9-12.45 326.9-13.31Q326.9-18.99 325.01-21.42 323.11-23.85 318.96-23.85L318.96-23.85Q315.4-23.85 313.51-21.08 311.62-18.31 311.62-13.26L311.62-13.26Q311.62-8.13 313.5-5.52 315.38-2.91 319.01-2.91Z" opacity="1" transform="matrix(1,0,0,1,0,0)" fill="#7f7f7f" class="slogan-text-1" data-fill-palette-color="secondary" id="text-1"></path></svg></g></svg></g></svg></g></svg></g><g transform="matrix(1,0,0,1,80.28652352142686,0)"><svg viewBox="0 0 234.94695295714627 234.85609728189277" height="234.85609728189277" width="234.94695295714627"><g><svg xmlns="http://www.w3.org/2000/svg" data-name="Layer 1" viewBox="1.0030253236083166 0.9998883317178127 30.011884341734092 30.00027853036613" x="0" y="0" height="234.85609728189277" width="234.94695295714627" class="icon-icon-0" data-fill-palette-color="accent" id="icon-0"><path d="M21 10.09L22.69 9.78A1 1 0 0 0 23.5 8.94L23.83 6.72 26.62 7.61A1 1 0 0 0 27.76 7.21L30.85 2.55A1 1 0 0 0 30 1H21A4 4 0 0 0 17.23 3.64L16.71 5.07A5 5 0 0 1 21 10.09" fill="#b10000" data-fill-palette-color="accent"></path><path d="M4.26 7.21A1 1 0 0 0 5.4 7.61L8.19 6.72 8.52 8.94A1 1 0 0 0 9.33 9.78L11.02 10.09A5 5 0 0 1 15.3 5.09L14.78 3.66A4 4 0 0 0 11 1H2A1 1 0 0 0 1.17 2.55Z" fill="#b10000" data-fill-palette-color="accent"></path><path d="M30.89 19.95L27.5 13.28A4 4 0 0 0 24.92 11.28L20.92 10.28A5 5 0 0 1 10.92 10.28L6.97 11.28A4 4 0 0 0 4.49 13.3L1.11 19.95A1 1 0 0 0 2 21.4H8.21A1 1 0 0 0 9.21 20.63L9.79 18.16 11.29 18.39 10.75 21H15.57A1 1 0 1 1 15.57 23H10.36L10 25H14.82A1 1 0 1 1 14.82 27H9.57L9 29.81A1 1 0 0 0 10 31H22A1 1 0 0 0 23 29.81L20.74 18.39 22.24 18.16 22.82 20.63A1 1 0 0 0 23.82 21.4H30A1 1 0 0 0 30.89 19.95" fill="#b10000" data-fill-palette-color="accent"></path><circle cx="16" cy="10" r="3.0" fill="#b10000" data-fill-palette-color="accent"></circle></svg></g></svg></g><g></g></svg></g><defs></defs></svg><rect width="374.3346586463559" height="327.2" fill="none" stroke="none" visibility="hidden"></rect></g></svg></g></svg>